<svg width="436" height="300" viewBox="0 0 436 300" fill="none" xmlns="http://www.w3.org/2000/svg">
<g clip-path="url(#clip0_2001_455)">
<path d="M433.925 97.9313C427.911 118.227 410.35 132.434 392.031 144.502C389.474 146.188 386.915 147.834 384.356 149.442C384.338 149.45 384.32 149.465 384.303 149.473C384.18 149.55 384.056 149.627 383.942 149.705C383.413 150.036 382.885 150.367 382.361 150.695L382.649 150.82C382.649 150.82 382.931 150.966 382.622 150.844C382.53 150.806 382.434 150.773 382.342 150.735C371.7 146.56 360.869 142.077 352.714 134.256C344.254 126.135 339.31 113.396 343.891 102.727C344.493 101.329 345.254 100.001 346.158 98.7676C346.53 98.2504 346.93 97.7554 347.347 97.2695C349.874 94.2696 353.177 91.9784 356.916 90.6317C360.655 89.285 364.695 88.9313 368.621 89.607C372.547 90.2826 376.217 91.9633 379.254 94.4761C382.291 96.989 384.585 100.243 385.901 103.905C387.247 91.7158 376.914 81.5059 366.971 73.9725C357.023 66.4429 345.72 58.2431 343.796 46.122C342.722 39.378 345.133 32.8424 349.525 27.5959C349.661 27.4365 349.797 27.2773 349.937 27.1222C355.283 21.0116 362.802 17.0877 370.993 16.1343C386.247 14.5922 401.063 22.446 412.145 32.7623C429.98 49.3606 440.763 74.8555 433.925 97.9313Z" fill="#F2F2F2"/>
<path d="M405.254 71.385C408.181 75.8155 410.429 80.6375 411.926 85.6989C413.191 90.2227 413.755 94.9052 413.597 99.5911C413.323 109.223 410.276 118.635 405.483 127.018C401.774 133.374 397.254 139.249 392.031 144.502C389.473 146.188 386.915 147.834 384.355 149.442C384.338 149.45 384.32 149.465 384.303 149.473C384.179 149.55 384.056 149.627 383.941 149.704C383.413 150.036 382.885 150.367 382.361 150.695C382.361 150.695 382.931 150.966 382.622 150.844C382.53 150.806 382.434 150.773 382.342 150.735C383.296 143.128 382.361 135.41 379.617 128.228C376.873 121.045 372.399 114.606 366.569 109.452C360.726 104.376 353.732 100.715 346.158 98.7676C346.53 98.2504 346.93 97.7554 347.347 97.2695C350.272 98.0674 353.119 99.1154 355.854 100.401C365.633 104.969 373.64 112.478 378.69 121.816C383.221 130.296 385.172 139.858 384.312 149.378C384.749 148.993 385.187 148.599 385.611 148.209C393.698 140.875 400.881 132.457 405.742 122.742C409.959 114.515 412.031 105.406 411.777 96.2158C411.38 86.1954 407.276 76.9139 401.333 68.8338C394.967 60.1862 386.986 52.5353 378.464 45.9074C369.735 39.1065 360.183 33.3702 350.021 28.8264C349.792 28.7224 349.612 28.5366 349.52 28.3076C349.428 28.0785 349.43 27.8237 349.525 27.5959C349.593 27.3914 349.741 27.2212 349.937 27.1222C350.038 27.0799 350.147 27.0603 350.257 27.0648C350.366 27.0694 350.474 27.098 350.571 27.1484C351.825 27.7103 353.071 28.2798 354.307 28.8739C364.601 33.8232 374.223 39.9973 382.953 47.2543C391.384 54.2468 399.322 62.2358 405.254 71.385Z" fill="white"/>
<path d="M335.772 214.14C348.092 214.14 358.08 204.425 358.08 192.441C358.08 180.457 348.092 170.742 335.772 170.742C323.452 170.742 313.465 180.457 313.465 192.441C313.465 204.425 323.452 214.14 335.772 214.14Z" fill="#2F2E41"/>
<path d="M318.36 180.741C321.965 177.235 322.695 172.26 319.992 169.631C317.288 167.001 312.174 167.711 308.57 171.218C304.965 174.724 304.234 179.699 306.938 182.329C309.641 184.958 314.755 184.248 318.36 180.741Z" fill="#2F2E41"/>
<path d="M359.022 173.851C360.524 170.431 357.942 166.079 353.253 164.131C348.565 162.183 343.547 163.376 342.045 166.796C340.543 170.217 343.126 174.568 347.814 176.516C352.502 178.464 357.52 177.271 359.022 173.851Z" fill="#2F2E41"/>
<path d="M383.014 285.608C379.181 288.198 375.131 290.47 370.906 292.399L370.281 291.326L364.303 281.118L363.779 280.222L360.721 275.001L360.714 274.995L351.059 258.493L346.096 250.021L360.834 239.967L366.567 251.758L369.676 258.162L382.472 284.486L383.014 285.608Z" fill="#A0616A"/>
<path d="M369.846 245.795L367.998 242.979L359.825 230.507C358.709 228.084 356.651 226.19 354.102 225.24C351.553 224.29 348.721 224.361 346.226 225.438C343.732 226.515 341.777 228.51 340.792 230.986C339.806 233.462 339.869 236.217 340.968 238.648L346.02 256.156C346.162 256.652 346.412 257.112 346.752 257.505C347.093 257.899 347.516 258.217 347.993 258.439C348.471 258.66 348.991 258.78 349.52 258.789C350.049 258.798 350.573 258.698 351.059 258.493C351.078 258.487 351.09 258.481 351.109 258.475L366.567 251.758L368.232 251.034C368.718 250.821 369.151 250.509 369.502 250.119C369.854 249.728 370.115 249.269 370.268 248.773C370.421 248.276 370.463 247.753 370.39 247.239C370.317 246.725 370.132 246.233 369.846 245.795Z" fill="#B51D44"/>
<path d="M325.435 246.187L321.134 255.635L320.2 257.69L304.276 292.682L303.765 293.804C299.453 292.055 295.301 289.954 291.354 287.522L291.782 286.344L304.78 250.672L307.972 241.912L314.959 243.623L325.435 246.187Z" fill="#A0616A"/>
<path d="M353.092 206.454C358.107 197.53 354.735 186.341 345.561 181.462C336.386 176.584 324.883 179.863 319.868 188.788C314.852 197.712 318.224 208.901 327.399 213.78C336.573 218.658 348.076 215.378 353.092 206.454Z" fill="#A0616A"/>
<path d="M369.48 250.144C369.206 247.718 368.71 245.32 367.998 242.979C365.851 235.931 361.746 229.597 356.135 224.673C354.074 222.873 351.4 221.879 348.63 221.882H321.96C320.043 221.877 318.157 222.35 316.481 223.256C314.806 224.162 313.397 225.471 312.39 227.057C311.382 228.643 310.809 230.454 310.726 232.317C310.643 234.179 311.051 236.032 311.913 237.697L314.959 243.623L321.134 255.635L322.615 258.512L329.219 271.364L329.742 272.382L363.262 281.351L363.407 281.038C363.533 280.762 363.659 280.492 363.779 280.222C363.962 279.811 364.145 279.412 364.315 279.007C367.696 271.21 369.291 264.272 369.676 258.162C369.848 255.489 369.783 252.806 369.48 250.144Z" fill="#B51D44"/>
<path d="M326.797 225.244C324.33 224.119 321.505 223.992 318.942 224.888C316.378 225.785 314.284 227.634 313.118 230.029L310.74 233.519L302.794 245.187C302.499 245.62 302.304 246.11 302.221 246.623C302.138 247.136 302.17 247.661 302.314 248.161C302.458 248.661 302.711 249.125 303.057 249.521C303.402 249.917 303.831 250.236 304.314 250.457L304.781 250.672L320.2 257.69L321.298 258.186C321.711 258.376 322.159 258.486 322.616 258.512C323.225 258.559 323.837 258.455 324.394 258.211C324.881 257.999 325.314 257.688 325.666 257.298C326.017 256.909 326.278 256.45 326.431 255.954L331.767 238.586C332.924 236.176 333.051 233.417 332.119 230.915C331.188 228.414 329.273 226.374 326.797 225.244Z" fill="#B51D44"/>
<path d="M364.315 279.007C364.203 278.626 364.021 278.266 363.779 277.946C362.917 276.821 361.886 275.829 360.721 275.002L360.714 274.995C356.659 272.008 348.587 268.517 333.015 268.425H332.99C332.276 268.425 331.578 268.624 330.977 268.999C330.377 269.375 329.9 269.91 329.603 270.542L329.219 271.364L326.74 276.664C326.53 277.12 326.197 277.512 325.775 277.799C323.536 279.339 316.41 284.921 312.727 295.583C312.595 295.963 312.468 296.35 312.349 296.749C328.096 301.224 344.851 301.076 360.512 296.325L360.859 294.933L364.303 281.118L364.36 280.891C364.516 280.27 364.5 279.62 364.315 279.007Z" fill="#2F2E41"/>
<path d="M316.586 186.038C320.913 188.938 326.048 190.482 331.302 190.461C329.428 191.725 327.294 192.579 325.048 192.964C332.034 194.422 339.254 194.461 346.256 193.08C347.812 192.837 349.314 192.335 350.696 191.597C351.384 191.223 351.984 190.712 352.456 190.098C352.928 189.484 353.262 188.78 353.436 188.032C353.901 185.446 351.83 183.097 349.678 181.514C346.382 179.127 342.582 177.482 338.553 176.699C334.524 175.916 330.366 176.013 326.38 176.985C323.778 177.639 321.171 178.745 319.48 180.778C317.79 182.811 317.289 185.945 318.9 188.039L316.586 186.038Z" fill="#2F2E41"/>
<path d="M342.704 18.6978H0.685059V20.0312H342.704V18.6978Z" fill="#3F3D56"/>
<path d="M12.3371 14.0042C14.6083 14.0042 16.4495 12.2132 16.4495 10.0039C16.4495 7.79464 14.6083 6.00366 12.3371 6.00366C10.0658 6.00366 8.22461 7.79464 8.22461 10.0039C8.22461 12.2132 10.0658 14.0042 12.3371 14.0042Z" fill="#3F3D56"/>
<path d="M24.1603 14.0042C26.4315 14.0042 28.2727 12.2132 28.2727 10.0039C28.2727 7.79464 26.4315 6.00366 24.1603 6.00366C21.8891 6.00366 20.0479 7.79464 20.0479 10.0039C20.0479 12.2132 21.8891 14.0042 24.1603 14.0042Z" fill="#3F3D56"/>
<path d="M35.9835 14.0042C38.2548 14.0042 40.096 12.2132 40.096 10.0039C40.096 7.79464 38.2548 6.00366 35.9835 6.00366C33.7123 6.00366 31.8711 7.79464 31.8711 10.0039C31.8711 12.2132 33.7123 14.0042 35.9835 14.0042Z" fill="#3F3D56"/>
<path d="M268.632 96.0812H74.5145C73.9368 96.0812 73.3647 95.9705 72.831 95.7555C72.2972 95.5404 71.8123 95.2252 71.4038 94.8278C70.9952 94.4305 70.6712 93.9587 70.4501 93.4396C70.229 92.9204 70.1152 92.3639 70.1152 91.8019C70.1152 91.24 70.229 90.6835 70.4501 90.1644C70.6712 89.6452 70.9952 89.1734 71.4038 88.7761C71.8123 88.3787 72.2972 88.0635 72.831 87.8484C73.3647 87.6334 73.9368 87.5227 74.5145 87.5227H268.632C269.21 87.5227 269.782 87.6334 270.315 87.8484C270.849 88.0635 271.334 88.3787 271.743 88.7761C272.151 89.1734 272.475 89.6452 272.696 90.1644C272.917 90.6835 273.031 91.24 273.031 91.8019C273.031 92.3639 272.917 92.9204 272.696 93.4396C272.475 93.9587 272.151 94.4305 271.743 94.8278C271.334 95.2252 270.849 95.5404 270.315 95.7555C269.782 95.9705 269.21 96.0812 268.632 96.0812Z" fill="#CCCCCC"/>
<path d="M268.632 142.083H74.5145C73.9368 142.083 73.3647 141.972 72.831 141.757C72.2972 141.542 71.8123 141.227 71.4038 140.83C70.9952 140.432 70.6712 139.961 70.4501 139.442C70.229 138.922 70.1152 138.366 70.1152 137.804C70.1152 137.242 70.229 136.685 70.4501 136.166C70.6712 135.647 70.9952 135.175 71.4038 134.778C71.8123 134.381 72.2972 134.065 72.831 133.85C73.3647 133.635 73.9368 133.525 74.5145 133.525H268.632C269.21 133.525 269.782 133.635 270.315 133.85C270.849 134.065 271.334 134.381 271.743 134.778C272.151 135.175 272.475 135.647 272.696 136.166C272.917 136.685 273.031 137.242 273.031 137.804C273.031 138.366 272.917 138.922 272.696 139.442C272.475 139.961 272.151 140.432 271.743 140.83C271.334 141.227 270.849 141.542 270.315 141.757C269.782 141.972 269.21 142.083 268.632 142.083Z" fill="#E6E6E6"/>
<path d="M268.632 159.735H74.5145C73.3477 159.735 72.2288 159.284 71.4038 158.482C70.5787 157.679 70.1152 156.591 70.1152 155.456C70.1152 154.321 70.5787 153.232 71.4038 152.43C72.2288 151.627 73.3477 151.177 74.5145 151.177H268.632C269.799 151.177 270.918 151.627 271.743 152.43C272.568 153.232 273.031 154.321 273.031 155.456C273.031 156.591 272.568 157.679 271.743 158.482C270.918 159.284 269.799 159.735 268.632 159.735Z" fill="#E6E6E6"/>
<path d="M237.012 77.8945H106.134C104.967 77.8945 103.848 77.4436 103.023 76.6411C102.198 75.8386 101.735 74.7501 101.735 73.6152C101.735 72.4803 102.198 71.3918 103.023 70.5893C103.848 69.7868 104.967 69.3359 106.134 69.3359H237.012C238.179 69.3359 239.298 69.7868 240.123 70.5893C240.948 71.3918 241.411 72.4803 241.411 73.6152C241.411 74.7501 240.948 75.8386 240.123 76.6411C239.298 77.4436 238.179 77.8945 237.012 77.8945Z" fill="#CCCCCC"/>
<path d="M142.95 124.431H74.761C74.1828 124.432 73.6102 124.322 73.0759 124.107C72.5415 123.892 72.0559 123.577 71.6468 123.18C71.2378 122.782 70.9132 122.31 70.6918 121.791C70.4704 121.271 70.3564 120.714 70.3564 120.152C70.3564 119.59 70.4704 119.033 70.6918 118.513C70.9132 117.994 71.2378 117.522 71.6468 117.124C72.0559 116.727 72.5415 116.412 73.0759 116.197C73.6102 115.982 74.1828 115.872 74.761 115.873H142.95C144.116 115.873 145.235 116.324 146.06 117.126C146.885 117.929 147.349 119.017 147.349 120.152C147.349 121.287 146.885 122.375 146.06 123.178C145.235 123.98 144.116 124.431 142.95 124.431Z" fill="#E6E6E6"/>
<path d="M268.878 124.431H200.69C200.112 124.432 199.539 124.322 199.005 124.107C198.47 123.892 197.985 123.577 197.576 123.18C197.166 122.782 196.842 122.31 196.621 121.791C196.399 121.271 196.285 120.714 196.285 120.152C196.285 119.59 196.399 119.033 196.621 118.513C196.842 117.994 197.166 117.522 197.576 117.124C197.985 116.727 198.47 116.412 199.005 116.197C199.539 115.982 200.112 115.872 200.69 115.873H268.878C269.456 115.872 270.029 115.982 270.563 116.197C271.098 116.412 271.583 116.727 271.992 117.124C272.401 117.522 272.726 117.994 272.947 118.513C273.169 119.033 273.283 119.59 273.283 120.152C273.283 120.714 273.169 121.271 272.947 121.791C272.726 122.31 272.401 122.782 271.992 123.18C271.583 123.577 271.098 123.892 270.563 124.107C270.029 124.322 269.456 124.432 268.878 124.431Z" fill="#E6E6E6"/>
<path d="M338.59 0H4.7931C3.5214 0.00188189 2.30243 0.494533 1.40379 1.3698C0.505146 2.24507 0.000279209 3.43142 0 4.66843V224.686C0.0016021 225.922 0.507099 227.107 1.40564 227.981C2.30417 228.855 3.52239 229.346 4.7931 229.348H254.403C254.34 228.906 254.29 228.458 254.239 228.017H4.7931C3.8851 228.016 3.01453 227.665 2.37247 227.04C1.73041 226.416 1.36932 225.569 1.36849 224.686V4.66843C1.36908 3.78456 1.72989 2.93698 2.37182 2.31142C3.01375 1.68587 3.88445 1.33338 4.7931 1.33121H338.59C339.5 1.33213 340.372 1.68402 341.015 2.30967C341.658 2.93532 342.02 3.78363 342.021 4.66843V139.513C342.475 139.544 342.936 139.58 343.39 139.623V4.66843C343.389 3.43044 342.883 2.24333 341.983 1.36796C341.083 0.492595 339.863 0.000568931 338.59 0Z" fill="#3F3D56"/>
<path d="M254.403 229.348C254.34 228.906 254.289 228.458 254.239 228.017C254.226 227.949 254.22 227.888 254.214 227.82C254.031 226.207 253.898 224.577 253.816 222.931C253.47 224.348 253.157 225.772 252.877 227.201C252.896 227.409 252.915 227.612 252.94 227.82C252.946 227.888 252.952 227.949 252.965 228.017C253.016 228.458 253.066 228.906 253.129 229.348C253.306 230.716 253.52 232.066 253.772 233.409C253.779 233.354 253.785 233.305 253.791 233.25C253.968 231.955 254.17 230.667 254.409 229.379C254.404 229.369 254.402 229.359 254.403 229.348ZM343.39 138.39C342.936 138.347 342.475 138.311 342.021 138.28C341.952 138.274 341.888 138.274 341.819 138.268C339.801 138.12 337.758 138.047 335.702 138.047C324.061 138.05 312.551 140.428 301.914 145.025C291.276 149.623 281.748 156.339 273.944 164.74C266.139 173.141 260.232 183.04 256.604 193.798C252.975 204.557 251.705 215.936 252.877 227.201C252.896 227.409 252.915 227.612 252.94 227.82C252.946 227.888 252.952 227.949 252.965 228.017C253.016 228.458 253.066 228.906 253.129 229.348C253.306 230.716 253.52 232.066 253.772 233.409C256.278 246.728 262.163 259.228 270.893 269.775C279.623 280.322 290.922 288.581 303.765 293.804C305.077 294.332 306.401 294.835 307.745 295.295C308.627 295.608 309.51 295.896 310.406 296.172C311.049 296.375 311.699 296.565 312.348 296.749C313.269 297.013 314.202 297.264 315.142 297.497C326.669 300.374 338.698 300.801 350.41 298.749C362.122 296.698 373.243 292.216 383.014 285.608H383.02C394.101 278.166 403.16 268.219 409.418 256.621C415.676 245.024 418.947 232.122 418.949 219.024C418.949 176.891 385.701 142.175 343.39 138.39ZM382.472 284.486C378.618 287.103 374.539 289.392 370.281 291.326C367.221 292.719 364.074 293.924 360.859 294.933C346.35 299.474 330.829 299.999 316.031 296.448C314.921 296.184 313.82 295.896 312.727 295.583C311.648 295.276 310.58 294.951 309.523 294.608C308.659 294.319 307.795 294.025 306.937 293.712C306.042 293.381 305.159 293.037 304.276 292.682C290.996 287.298 279.4 278.618 270.65 267.51C261.899 256.401 256.299 243.252 254.409 229.379C254.404 229.369 254.402 229.359 254.403 229.348C254.34 228.906 254.289 228.458 254.239 228.017C254.226 227.949 254.22 227.888 254.214 227.82C254.031 226.207 253.898 224.577 253.816 222.931C253.747 221.637 253.714 220.334 253.716 219.024C253.739 197.88 262.385 177.608 277.755 162.657C293.125 147.707 313.965 139.297 335.702 139.274C337.758 139.274 339.801 139.347 341.819 139.495C341.889 139.501 341.952 139.507 342.021 139.513C342.475 139.544 342.936 139.581 343.39 139.623C385.007 143.402 417.688 177.566 417.688 219.024C417.686 231.89 414.482 244.564 408.349 255.964C402.217 267.364 393.338 277.15 382.472 284.486ZM306.937 293.712C306.042 293.381 305.159 293.037 304.276 292.682C290.996 287.298 279.4 278.618 270.65 267.51C261.899 256.401 256.299 243.252 254.409 229.379C254.17 230.667 253.968 231.955 253.791 233.25C253.785 233.305 253.779 233.354 253.772 233.409C256.278 246.728 262.163 259.228 270.893 269.775C279.623 280.322 290.922 288.581 303.765 293.804C305.077 294.332 306.401 294.835 307.745 295.295C307.467 294.773 307.196 294.246 306.937 293.712ZM341.819 138.268C339.801 138.12 337.758 138.047 335.702 138.047C324.061 138.05 312.551 140.428 301.914 145.025C291.276 149.623 281.748 156.339 273.944 164.74C266.139 173.141 260.232 183.04 256.604 193.798C252.975 204.557 251.705 215.936 252.877 227.201C252.896 227.409 252.915 227.612 252.94 227.82C252.946 227.888 252.952 227.949 252.965 228.017H254.239C254.226 227.949 254.22 227.888 254.214 227.82C254.031 226.207 253.898 224.577 253.816 222.931C253.747 221.637 253.714 220.334 253.716 219.024C253.739 197.88 262.385 177.608 277.755 162.657C293.125 147.707 313.965 139.297 335.702 139.274C337.758 139.274 339.801 139.347 341.819 139.495C341.889 139.501 341.952 139.507 342.021 139.513L342.021 138.28C341.952 138.274 341.888 138.274 341.819 138.268Z" fill="#3F3D56"/>
<path d="M403.369 158.773C428.938 159.198 428.934 196.195 403.368 196.616C377.799 196.191 377.803 159.195 403.369 158.773Z" fill="#B51D44"/>
<path d="M403.369 187.998C403.007 187.997 402.659 187.857 402.403 187.608C402.146 187.358 402.002 187.02 402.002 186.668V179.617C402.002 179.46 401.938 179.31 401.823 179.198C401.709 179.087 401.554 179.025 401.393 179.025H394.145C393.782 179.025 393.434 178.884 393.178 178.635C392.921 178.386 392.777 178.047 392.777 177.695C392.777 177.342 392.921 177.004 393.178 176.754C393.434 176.505 393.782 176.365 394.145 176.365H401.393C401.554 176.365 401.709 176.302 401.823 176.191C401.937 176.08 402.002 175.929 402.002 175.772V168.722C402.002 168.369 402.146 168.031 402.402 167.781C402.659 167.532 403.006 167.392 403.369 167.392C403.731 167.392 404.079 167.532 404.335 167.781C404.592 168.031 404.736 168.369 404.736 168.722V175.772C404.736 175.929 404.8 176.08 404.914 176.191C405.029 176.302 405.184 176.365 405.345 176.365H412.593C412.956 176.365 413.304 176.505 413.56 176.754C413.816 177.004 413.96 177.342 413.96 177.695C413.96 178.047 413.816 178.386 413.56 178.635C413.304 178.884 412.956 179.025 412.593 179.025H405.345C405.183 179.025 405.029 179.087 404.914 179.198C404.8 179.31 404.736 179.46 404.736 179.617V186.668C404.735 187.02 404.591 187.358 404.335 187.608C404.079 187.857 403.731 187.997 403.369 187.998Z" fill="white"/>
</g>
<defs>
<clipPath id="clip0_2001_455">
<rect width="436" height="300" fill="white"/>
</clipPath>
</defs>
</svg>
