<svg width="436" height="279" viewBox="0 0 436 279" fill="none" xmlns="http://www.w3.org/2000/svg">
<g clip-path="url(#clip0_2001_509)">
<path d="M105.603 251.485L106.088 240.248C111.142 237.463 116.779 235.992 122.509 235.962C114.622 242.61 115.608 255.424 110.261 264.363C108.572 267.138 106.3 269.485 103.612 271.232C100.924 272.978 97.8888 274.078 94.7321 274.451L88.1322 278.617C87.2266 273.412 87.4262 268.067 88.7174 262.949C90.0086 257.832 92.3606 253.063 95.6114 248.973C97.4572 246.697 99.5736 244.67 101.911 242.939C103.491 247.236 105.603 251.485 105.603 251.485Z" fill="#F2F2F2"/>
<path d="M387.218 18.3098H79.9768C79.8478 18.3069 79.7251 18.252 79.6349 18.157C79.5447 18.0619 79.4941 17.9342 79.4941 17.8012C79.4941 17.6682 79.5447 17.5405 79.6349 17.4455C79.7251 17.3504 79.8478 17.2955 79.9768 17.2926H387.218C387.347 17.2955 387.469 17.3504 387.56 17.4455C387.65 17.5405 387.7 17.6682 387.7 17.8012C387.7 17.9342 387.65 18.0619 387.56 18.157C387.469 18.252 387.347 18.3069 387.218 18.3098Z" fill="#CACACA"/>
<path d="M90.8393 11.1894C93.7711 11.1894 96.1478 8.68454 96.1478 5.59468C96.1478 2.50482 93.7711 0 90.8393 0C87.9075 0 85.5308 2.50482 85.5308 5.59468C85.5308 8.68454 87.9075 11.1894 90.8393 11.1894Z" fill="#3F3D56"/>
<path d="M109.178 11.1894C112.11 11.1894 114.486 8.68454 114.486 5.59468C114.486 2.50482 112.11 0 109.178 0C106.246 0 103.869 2.50482 103.869 5.59468C103.869 8.68454 106.246 11.1894 109.178 11.1894Z" fill="#3F3D56"/>
<path d="M127.516 11.1894C130.448 11.1894 132.825 8.68454 132.825 5.59468C132.825 2.50482 130.448 0 127.516 0C124.584 0 122.208 2.50482 122.208 5.59468C122.208 8.68454 124.584 11.1894 127.516 11.1894Z" fill="#3F3D56"/>
<path d="M376.229 1.38672H363.202C362.944 1.392 362.698 1.50146 362.517 1.69158C362.336 1.88171 362.235 2.13734 362.235 2.40359C362.235 2.66983 362.336 2.92546 362.517 3.11559C362.698 3.30571 362.944 3.41517 363.202 3.42045H376.229C376.487 3.41517 376.733 3.30571 376.913 3.11559C377.094 2.92546 377.196 2.66983 377.196 2.40359C377.196 2.13734 377.094 1.88171 376.913 1.69158C376.733 1.50146 376.487 1.392 376.229 1.38672Z" fill="#3F3D56"/>
<path d="M376.229 5.20374H363.202C362.944 5.20902 362.698 5.31848 362.517 5.5086C362.336 5.69873 362.235 5.95436 362.235 6.2206C362.235 6.48685 362.336 6.74248 362.517 6.9326C362.698 7.12273 362.944 7.23218 363.202 7.23747H376.229C376.487 7.23218 376.733 7.12273 376.913 6.9326C377.094 6.74248 377.196 6.48685 377.196 6.2206C377.196 5.95436 377.094 5.69873 376.913 5.5086C376.733 5.31848 376.487 5.20902 376.229 5.20374Z" fill="#3F3D56"/>
<path d="M376.229 9.01575H363.202C362.944 9.02103 362.698 9.13048 362.517 9.32061C362.336 9.51073 362.235 9.76637 362.235 10.0326C362.235 10.2989 362.336 10.5545 362.517 10.7446C362.698 10.9347 362.944 11.0442 363.202 11.0495H376.229C376.487 11.0442 376.733 10.9347 376.913 10.7446C377.094 10.5545 377.196 10.2989 377.196 10.0326C377.196 9.76637 377.094 9.51073 376.913 9.32061C376.733 9.13048 376.487 9.02103 376.229 9.01575Z" fill="#3F3D56"/>
<path d="M319.092 58.1776H108.21C107.171 58.1777 106.174 58.6029 105.439 59.3599C104.704 60.1169 104.29 61.1438 104.289 62.215V164.838C104.29 165.91 104.703 166.938 105.438 167.696C106.173 168.453 107.17 168.88 108.21 168.881H319.092C320.131 168.879 321.126 168.452 321.86 167.694C322.594 166.936 323.007 165.909 323.008 164.838V62.215C323.007 61.1446 322.594 60.1183 321.86 59.3614C321.126 58.6044 320.13 58.1787 319.092 58.1776Z" fill="#3F3D56"/>
<path d="M263.389 107.618C262.351 107.619 261.355 108.045 260.621 108.802C259.887 109.559 259.474 110.585 259.473 111.656V140.644C259.474 141.715 259.886 142.742 260.62 143.5C261.355 144.257 262.35 144.684 263.389 144.686H323.008V107.618H263.389Z" fill="#B51D44"/>
<path opacity="0.5" d="M423.255 144.684H263.391C262.352 144.683 261.356 144.257 260.621 143.5C259.886 142.742 259.473 141.715 259.472 140.644V111.657C259.473 110.586 259.886 109.559 260.621 108.801C261.356 108.044 262.352 107.618 263.391 107.616H423.255C424.294 107.618 425.29 108.044 426.025 108.801C426.759 109.559 427.173 110.586 427.174 111.657V140.644C427.173 141.715 426.759 142.742 426.025 143.5C425.29 144.257 424.294 144.683 423.255 144.684Z" fill="#B51D44"/>
<path d="M285.01 134.56C288.523 134.56 291.37 131.625 291.37 128.004C291.37 124.382 288.523 121.447 285.01 121.447C281.498 121.447 278.65 124.382 278.65 128.004C278.65 131.625 281.498 134.56 285.01 134.56Z" fill="white"/>
<path d="M418.302 126.098H303.381C302.879 126.098 302.397 125.893 302.042 125.527C301.687 125.16 301.487 124.664 301.487 124.146C301.487 123.628 301.687 123.131 302.042 122.765C302.397 122.399 302.879 122.193 303.381 122.193H418.302C418.804 122.193 419.286 122.399 419.641 122.765C419.996 123.131 420.195 123.628 420.195 124.146C420.195 124.664 419.996 125.16 419.641 125.527C419.286 125.893 418.804 126.098 418.302 126.098Z" fill="white"/>
<path d="M374.654 133.813H303.381C302.879 133.813 302.397 133.608 302.042 133.242C301.687 132.875 301.487 132.379 301.487 131.861C301.487 131.343 301.687 130.846 302.042 130.48C302.397 130.114 302.879 129.908 303.381 129.908H374.654C375.156 129.908 375.638 130.114 375.993 130.48C376.348 130.846 376.548 131.343 376.548 131.861C376.548 132.379 376.348 132.875 375.993 133.242C375.638 133.608 375.156 133.813 374.654 133.813Z" fill="white"/>
<path d="M73.5669 273.27L79.0711 273.27L81.6895 251.383H73.5659L73.5669 273.27Z" fill="#FFB6B6"/>
<path d="M72.1631 271.418L73.7123 271.417L79.7609 268.882L83.0027 271.417C84.8348 271.417 86.5922 272.167 87.8876 273.503C89.1831 274.838 89.9109 276.65 89.911 278.538V278.77L72.1634 278.771L72.1631 271.418Z" fill="#2F2E41"/>
<path d="M23.8335 265.893L28.76 268.424L40.5739 250.04L33.3035 246.304L23.8335 265.893Z" fill="#FFB6B6"/>
<path d="M23.3787 263.589L24.7653 264.301L31.276 264.814L33.0803 268.574C34.7198 269.416 35.968 270.896 36.5496 272.687C37.1311 274.478 36.9987 276.434 36.1816 278.124L36.0814 278.331L20.1973 270.17L23.3787 263.589Z" fill="#2F2E41"/>
<path d="M76.006 173.868L41.0091 174.809L41.6178 192.378C41.6178 192.378 41.0091 197.084 42.2264 198.339C43.4437 199.594 44.0524 199.594 43.4437 201.79C42.8351 203.986 41.2616 224.969 41.2616 224.969C41.2616 224.969 26.8979 251.152 27.5065 251.78C28.1151 252.407 28.7238 251.78 28.1151 253.348C27.5065 254.917 26.8979 254.29 27.5065 254.917C28.0456 255.516 28.5536 256.145 29.0281 256.799H38.9479C38.9479 256.799 39.5026 253.662 39.5026 253.348C39.5026 253.035 40.1112 251.152 40.1112 250.838C40.1112 250.525 57.4425 231.594 57.4425 231.594L61.0943 200.221L69.9196 230.967C69.9196 230.967 69.9196 257.948 70.5282 258.575C71.1369 259.203 71.1369 258.889 70.8326 260.144C70.5282 261.399 69.3109 261.085 70.2239 262.026C71.1369 262.968 71.4412 261.399 71.1369 262.968L70.8326 264.536L82.5243 264.671C82.5243 264.671 83.7416 262.026 83.133 261.085C82.5243 260.144 82.5608 260.401 83.3034 258.861C84.0459 257.32 84.3502 257.007 84.0459 256.693C83.7416 256.379 83.7416 254.711 83.7416 254.711C83.7416 254.711 79.3535 193.005 79.3535 192.064C79.3306 191.58 79.4171 191.097 79.6063 190.653V189.375L78.4406 184.848L76.006 173.868Z" fill="#2F2E41"/>
<path d="M422.571 119.393C419.915 119.393 417.318 118.581 415.11 117.06C412.901 115.539 411.18 113.377 410.164 110.847C409.147 108.317 408.881 105.533 409.4 102.848C409.918 100.162 411.197 97.6955 413.075 95.7593C414.953 93.8231 417.346 92.5046 419.951 91.9704C422.556 91.4362 425.256 91.7103 427.71 92.7582C430.164 93.806 432.261 95.5805 433.737 97.8572C435.212 100.134 436 102.811 436 105.549C436 109.221 434.585 112.742 432.066 115.338C429.548 117.935 426.132 119.393 422.571 119.393Z" fill="#B51D44"/>
<path d="M427.87 104.183H423.896V100.086C423.896 99.7239 423.756 99.3766 423.508 99.1205C423.259 98.8643 422.922 98.7205 422.571 98.7205C422.22 98.7205 421.883 98.8643 421.634 99.1205C421.386 99.3766 421.246 99.7239 421.246 100.086V104.183H417.272C417.098 104.183 416.925 104.218 416.764 104.286C416.603 104.355 416.457 104.455 416.334 104.582C416.21 104.709 416.113 104.86 416.046 105.026C415.979 105.191 415.945 105.369 415.945 105.549C415.945 105.728 415.979 105.906 416.046 106.072C416.113 106.238 416.21 106.389 416.334 106.515C416.457 106.642 416.603 106.743 416.764 106.811C416.925 106.88 417.098 106.915 417.272 106.914H421.246V111.012C421.246 111.374 421.386 111.721 421.634 111.977C421.883 112.233 422.22 112.377 422.571 112.377C422.922 112.377 423.259 112.233 423.508 111.977C423.756 111.721 423.896 111.374 423.896 111.012V106.914H427.87C428.221 106.914 428.558 106.771 428.806 106.514C429.055 106.258 429.194 105.911 429.194 105.549C429.194 105.187 429.055 104.839 428.806 104.583C428.558 104.327 428.221 104.183 427.87 104.183Z" fill="white"/>
<path d="M217.623 144.872H166.599C165.56 144.873 164.563 145.299 163.828 146.057C163.093 146.815 162.679 147.842 162.678 148.914V168.881H221.539V148.914C221.538 147.843 221.126 146.816 220.391 146.059C219.657 145.301 218.662 144.874 217.623 144.872Z" fill="#B51D44"/>
<path opacity="0.5" d="M217.621 200.975H166.598C165.558 200.974 164.562 200.548 163.827 199.79C163.093 199.033 162.679 198.006 162.678 196.934V148.912C162.679 147.841 163.093 146.814 163.828 146.057C164.562 145.299 165.558 144.873 166.598 144.872H217.621C218.66 144.873 219.657 145.299 220.391 146.057C221.126 146.814 221.539 147.841 221.541 148.912V196.934C221.539 198.006 221.126 199.033 220.391 199.79C219.657 200.548 218.66 200.974 217.621 200.975Z" fill="#B51D44"/>
<path d="M181.631 167.634C185.143 167.634 187.991 164.698 187.991 161.077C187.991 157.456 185.143 154.521 181.631 154.521C178.118 154.521 175.271 157.456 175.271 161.077C175.271 164.698 178.118 167.634 181.631 167.634Z" fill="white"/>
<path d="M207.054 177.6H177.164C176.662 177.6 176.18 177.394 175.825 177.028C175.47 176.662 175.271 176.165 175.271 175.647C175.271 175.129 175.47 174.633 175.825 174.267C176.18 173.901 176.662 173.695 177.164 173.695H207.054C207.556 173.695 208.038 173.901 208.393 174.267C208.748 174.633 208.948 175.129 208.948 175.647C208.948 176.165 208.748 176.662 208.393 177.028C208.038 177.394 207.556 177.6 207.054 177.6Z" fill="white"/>
<path d="M191.588 185.315H177.164C176.662 185.315 176.18 185.109 175.825 184.743C175.47 184.377 175.271 183.88 175.271 183.362C175.271 182.845 175.47 182.348 175.825 181.982C176.18 181.615 176.662 181.41 177.164 181.41H191.588C192.09 181.41 192.572 181.615 192.927 181.982C193.282 182.348 193.482 182.845 193.482 183.362C193.482 183.88 193.282 184.377 192.927 184.743C192.572 185.109 192.09 185.315 191.588 185.315Z" fill="white"/>
<path d="M165.534 215.069C162.878 215.069 160.282 214.257 158.073 212.736C155.865 211.214 154.144 209.052 153.127 206.522C152.111 203.993 151.845 201.209 152.363 198.524C152.881 195.838 154.16 193.371 156.038 191.435C157.916 189.499 160.309 188.18 162.914 187.646C165.519 187.112 168.219 187.386 170.673 188.434C173.127 189.482 175.224 191.256 176.7 193.533C178.176 195.81 178.963 198.486 178.963 201.224C178.963 204.896 177.548 208.418 175.03 211.014C172.511 213.61 169.096 215.069 165.534 215.069Z" fill="#B51D44"/>
<path d="M170.833 199.859H166.858V195.762C166.858 195.4 166.719 195.052 166.47 194.796C166.222 194.54 165.885 194.396 165.534 194.396C165.182 194.396 164.845 194.54 164.597 194.796C164.349 195.052 164.209 195.4 164.209 195.762V199.859H160.235C160.061 199.858 159.888 199.894 159.727 199.962C159.566 200.031 159.42 200.131 159.297 200.258C159.173 200.385 159.076 200.535 159.009 200.701C158.942 200.867 158.908 201.045 158.908 201.224C158.908 201.404 158.942 201.582 159.009 201.748C159.076 201.914 159.173 202.064 159.297 202.191C159.42 202.318 159.566 202.418 159.727 202.487C159.888 202.555 160.061 202.59 160.235 202.59H164.209V206.687C164.209 207.049 164.349 207.397 164.597 207.653C164.845 207.909 165.182 208.053 165.534 208.053C165.885 208.053 166.222 207.909 166.47 207.653C166.719 207.397 166.858 207.049 166.858 206.687V202.59H170.833C171.184 202.59 171.521 202.446 171.769 202.19C172.018 201.934 172.157 201.587 172.157 201.224C172.157 200.862 172.018 200.515 171.769 200.259C171.521 200.003 171.184 199.859 170.833 199.859Z" fill="white"/>
<path d="M159.318 114.343H108.294C107.255 114.342 106.259 113.916 105.524 113.158C104.789 112.401 104.376 111.374 104.375 110.303V62.2807C104.376 61.2094 104.789 60.1824 105.524 59.425C106.259 58.6675 107.255 58.2414 108.294 58.2402H159.318C160.357 58.2414 161.353 58.6675 162.088 59.425C162.822 60.1824 163.236 61.2094 163.237 62.2807V110.303C163.236 111.374 162.822 112.401 162.088 113.158C161.353 113.916 160.357 114.342 159.318 114.343Z" fill="#B51D44"/>
<path d="M123.327 85.0098C126.84 85.0098 129.687 82.0743 129.687 78.4531C129.687 74.8319 126.84 71.8964 123.327 71.8964C119.815 71.8964 116.967 74.8319 116.967 78.4531C116.967 82.0743 119.815 85.0098 123.327 85.0098Z" fill="#B51D44"/>
<path d="M148.75 92.9719H118.861C118.359 92.9719 117.877 92.7662 117.522 92.4001C117.167 92.0339 116.967 91.5373 116.967 91.0195C116.967 90.5017 117.167 90.005 117.522 89.6389C117.877 89.2727 118.359 89.067 118.861 89.067H148.75C149.253 89.067 149.734 89.2727 150.09 89.6389C150.445 90.005 150.644 90.5017 150.644 91.0195C150.644 91.5373 150.445 92.0339 150.09 92.4001C149.734 92.7662 149.253 92.9719 148.75 92.9719Z" fill="#B51D44"/>
<path d="M133.284 100.687H118.861C118.359 100.687 117.877 100.481 117.522 100.115C117.167 99.749 116.967 99.2524 116.967 98.7345C116.967 98.2167 117.167 97.72 117.522 97.3539C117.877 96.9877 118.359 96.782 118.861 96.782H133.284C133.787 96.782 134.268 96.9877 134.624 97.3539C134.979 97.72 135.178 98.2167 135.178 98.7345C135.178 99.2524 134.979 99.749 134.624 100.115C134.268 100.481 133.787 100.687 133.284 100.687Z" fill="#B51D44"/>
<path opacity="0.5" d="M159.318 114.343H108.294C107.255 114.342 106.259 113.916 105.524 113.158C104.789 112.401 104.376 111.374 104.375 110.303V62.2807C104.376 61.2094 104.789 60.1824 105.524 59.425C106.259 58.6675 107.255 58.2414 108.294 58.2402H159.318C160.357 58.2414 161.353 58.6675 162.088 59.425C162.822 60.1824 163.236 61.2094 163.237 62.2807V110.303C163.236 111.374 162.822 112.401 162.088 113.158C161.353 113.916 160.357 114.342 159.318 114.343Z" fill="#B51D44"/>
<path d="M123.327 85.0098C126.84 85.0098 129.687 82.0743 129.687 78.4531C129.687 74.8319 126.84 71.8964 123.327 71.8964C119.815 71.8964 116.967 74.8319 116.967 78.4531C116.967 82.0743 119.815 85.0098 123.327 85.0098Z" fill="white"/>
<path d="M148.75 92.9719H118.861C118.359 92.9719 117.877 92.7662 117.522 92.4001C117.167 92.0339 116.967 91.5373 116.967 91.0195C116.967 90.5017 117.167 90.005 117.522 89.6389C117.877 89.2727 118.359 89.067 118.861 89.067H148.75C149.253 89.067 149.734 89.2727 150.09 89.6389C150.445 90.005 150.644 90.5017 150.644 91.0195C150.644 91.5373 150.445 92.0339 150.09 92.4001C149.734 92.7662 149.253 92.9719 148.75 92.9719Z" fill="white"/>
<path d="M133.284 100.687H118.861C118.359 100.687 117.877 100.481 117.522 100.115C117.167 99.749 116.967 99.2524 116.967 98.7345C116.967 98.2167 117.167 97.72 117.522 97.3539C117.877 96.9877 118.359 96.782 118.861 96.782H133.284C133.787 96.782 134.268 96.9877 134.624 97.3539C134.979 97.72 135.178 98.2167 135.178 98.7345C135.178 99.2524 134.979 99.749 134.624 100.115C134.268 100.481 133.787 100.687 133.284 100.687Z" fill="white"/>
<path d="M109.347 68.6017C114.982 68.6017 119.551 63.8921 119.551 58.0824C119.551 52.2728 114.982 47.5631 109.347 47.5631C103.711 47.5631 99.1431 52.2728 99.1431 58.0824C99.1431 63.8921 103.711 68.6017 109.347 68.6017Z" fill="#FF6584"/>
<path d="M137.347 278.404C137.347 278.482 137.333 278.56 137.304 278.632C137.275 278.705 137.232 278.771 137.178 278.826C137.125 278.881 137.061 278.925 136.99 278.955C136.92 278.985 136.845 279 136.769 279H0.578213C0.424862 279 0.277789 278.937 0.169353 278.825C0.0609178 278.714 0 278.562 0 278.404C0 278.246 0.0609178 278.094 0.169353 277.982C0.277789 277.871 0.424862 277.808 0.578213 277.808H136.769C136.845 277.808 136.92 277.823 136.99 277.853C137.061 277.883 137.125 277.927 137.178 277.982C137.232 278.037 137.275 278.103 137.304 278.176C137.333 278.248 137.347 278.326 137.347 278.404Z" fill="#CCCCCC"/>
<path d="M107.166 85.9458C107.585 87.155 107.527 88.4856 107.004 89.6508C106.48 90.8161 105.533 91.7226 104.368 92.1749C104.11 92.2742 103.844 92.3497 103.573 92.4007L100.878 109.412L94.5566 103.394L98.0848 88.1629C97.9543 86.8794 98.3189 85.5945 99.0999 84.586C99.8809 83.5775 101.016 82.9263 102.259 82.7733C103.304 82.6497 104.36 82.8965 105.251 83.473C106.143 84.0495 106.818 84.9215 107.166 85.9458Z" fill="#FFB6B6"/>
<path d="M60.5132 124.491C60.5132 124.491 65.4195 117.808 83.2232 117.991L93.3287 114.206L95.6382 92.3805L103.721 94.3646L102.567 121.348L85.2455 131.666L62.5354 136.428L60.5132 124.491Z" fill="#3F3D56"/>
<path d="M57.9063 110.568C63.7422 110.568 68.4732 105.691 68.4732 99.6744C68.4732 93.6579 63.7422 88.7806 57.9063 88.7806C52.0703 88.7806 47.3394 93.6579 47.3394 99.6744C47.3394 105.691 52.0703 110.568 57.9063 110.568Z" fill="#FFB6B6"/>
<path d="M40.0219 182.274C40.0031 182.274 39.9844 182.271 39.9664 182.266C39.7713 182.21 39.6172 182.165 40.3213 175.889L41.0811 170.928L40.3393 166.548L39.0915 165.262L41.0969 163.195L42.7798 158.266L39.8679 153.818L36.5272 135.627C35.9528 132.488 36.3991 129.241 37.7969 126.39C39.1946 123.539 41.4657 121.243 44.258 119.858L48.1246 118.694L49.5315 116.034C49.9265 115.287 50.5082 114.663 51.2162 114.226C51.9242 113.789 52.7327 113.555 53.5579 113.548L60.6386 113.494C61.353 113.488 62.0589 113.653 62.701 113.976C63.3431 114.299 63.904 114.771 64.3395 115.355L66.8098 118.665L77.0537 122.253L75.3552 159.983C75.625 160.215 75.845 160.503 76.0013 160.828C76.1576 161.153 76.2467 161.508 76.2631 161.87C76.2796 162.233 76.2228 162.595 76.0966 162.933C75.9703 163.272 75.7773 163.58 75.5297 163.837C75.4232 163.948 75.3386 164.038 75.2864 164.098C75.1137 164.351 75.4377 166.239 75.8379 167.842L76.351 170.298C76.1863 170.419 76.0478 170.574 75.9443 170.753C75.8408 170.933 75.7744 171.132 75.7494 171.339C75.7244 171.546 75.7413 171.756 75.799 171.956C75.8567 172.156 75.9541 172.342 76.0848 172.501L76.7391 173.298C76.8684 174.297 76.6082 175.308 76.0154 176.109C75.4227 176.911 74.5458 177.437 73.5772 177.573C64.2152 178.887 40.0708 182.274 40.0219 182.274Z" fill="#3F3D56"/>
<path d="M55.2029 110.035C55.1578 109.932 55.1128 109.829 55.0679 109.726C55.0852 109.727 55.1023 109.729 55.1196 109.73L55.2029 110.035Z" fill="#2F2E41"/>
<path d="M47.0454 89.2761C47.5471 88.7881 48.1992 88.4974 48.8878 88.4549C49.571 88.4776 50.264 89.1138 50.1224 89.8034C51.3775 87.5124 53.3752 85.7504 55.7649 84.8266C58.1546 83.9028 60.7836 83.8763 63.1904 84.7517C64.8887 85.3694 66.5541 86.6052 66.9442 88.4176C66.9822 88.8935 67.1199 89.3552 67.3477 89.7709C67.5451 89.9931 67.8013 90.151 68.0847 90.225C68.3681 90.299 68.6662 90.2859 68.9425 90.1874L68.9593 90.1823C69.0538 90.1491 69.1559 90.1458 69.2523 90.173C69.3487 90.2001 69.4349 90.2565 69.4999 90.3347C69.5649 90.413 69.6056 90.5096 69.6168 90.6119C69.6279 90.7143 69.609 90.8177 69.5625 90.9089L69.082 91.8328C69.6878 91.972 70.3172 91.9582 70.9166 91.7926C71.0162 91.7657 71.1214 91.7712 71.2178 91.8084C71.3143 91.8455 71.3972 91.9125 71.4552 92.0002C71.5132 92.0879 71.5435 92.1919 71.5419 92.298C71.5403 92.4041 71.507 92.5071 71.4463 92.5929C70.6478 93.7193 69.6052 94.6379 68.4016 95.2757C67.198 95.9135 65.8665 96.2529 64.5133 96.2668C62.5934 96.2547 60.6536 95.5726 58.7851 96.0277C58.0622 96.2038 57.3867 96.5445 56.8082 97.0248C56.2297 97.5051 55.7629 98.1129 55.442 98.8035C55.121 99.494 54.9541 100.25 54.9535 101.016C54.9529 101.781 55.1186 102.538 55.4384 103.229C54.8644 102.581 53.7547 102.735 53.1675 103.369C52.8971 103.709 52.6973 104.102 52.5803 104.525C52.4633 104.948 52.4318 105.39 52.4875 105.826C52.6441 107.161 53.0284 108.456 53.6227 109.652C51.3523 109.58 49.158 108.792 47.3362 107.393C45.5145 105.994 44.153 104.053 43.4358 101.831C42.7186 99.6089 42.6801 97.2135 43.3256 94.9683C43.9711 92.7231 45.2695 90.7362 47.0454 89.2761Z" fill="#2F2E41"/>
<path d="M44.1381 197.898C43.1278 197.146 42.4443 196.016 42.2351 194.75C42.0258 193.484 42.3075 192.184 43.0194 191.131C43.1773 190.898 43.3549 190.68 43.55 190.48L36.4194 174.89L44.9356 176.155L50.4013 190.765C51.2144 191.747 51.6203 193.018 51.5312 194.306C51.4421 195.593 50.8652 196.792 49.9252 197.645C49.1315 198.357 48.1263 198.771 47.0747 198.817C46.023 198.863 44.9874 198.538 44.1381 197.898Z" fill="#FFB6B6"/>
<path d="M41.9788 189.385L30.6322 163.095L30.5186 142.331L34.0952 131.115C34.5805 129.593 35.3567 128.187 36.378 126.98C37.3993 125.773 38.645 124.789 40.0414 124.087C41.4378 123.385 42.9566 122.978 44.508 122.891C46.0595 122.804 47.6121 123.039 49.0741 123.581L49.1528 123.61L49.1859 123.69C49.318 124.008 52.3179 131.658 43.4197 147.394L41.6289 158.162L47.9126 182.845L41.9788 189.385Z" fill="#3F3D56"/>
</g>
<defs>
<clipPath id="clip0_2001_509">
<rect width="436" height="279" fill="white"/>
</clipPath>
</defs>
</svg>
