<svg width="293" height="51" viewBox="0 0 293 51" fill="none" xmlns="http://www.w3.org/2000/svg">
<g clip-path="url(#clip0_2001_195)">
<path d="M0 0.658417V4.2533L33.0148 3.95044V0.658417H0Z" fill="url(#paint0_linear_2001_195)"/>
<path d="M0 23.7025V27.2974L33.0148 26.9946V23.7025H0Z" fill="url(#paint1_linear_2001_195)"/>
<path d="M0 47.4051V51L33.0148 50.6971V47.4051H0Z" fill="url(#paint2_linear_2001_195)"/>
<path d="M107.628 0V3.59489L140.643 3.29202V0H107.628Z" fill="url(#paint3_linear_2001_195)"/>
<path d="M107.628 23.0442V26.639L140.643 26.3362V23.0442H107.628Z" fill="url(#paint4_linear_2001_195)"/>
<path d="M107.628 46.7467V50.3416L140.643 50.0387V46.7467H107.628Z" fill="url(#paint5_linear_2001_195)"/>
<path d="M44.5435 0.658417H48.7561L68.3405 45.7591L89.2984 0.658417H93.1809L70.5856 51H67.1322L44.5435 0.658417Z" fill="url(#paint6_linear_2001_195)"/>
<path d="M163.225 51H159.686V0.658417H163.225L197.098 45.1007V0.658417H200.314V51H197.112L163.423 8.23007L163.225 51Z" fill="url(#paint7_linear_2001_195)"/>
<path d="M214.643 0.658417H254.604V4.02945H236.479V51H232.854V3.62124H214.643V0.658417Z" fill="url(#paint8_linear_2001_195)"/>
<path d="M279.774 10.8637H276.334V40.6762H279.774V10.8637Z" fill="url(#paint9_linear_2001_195)"/>
<path d="M293.007 24.0515H263.108V27.4818H293.007V24.0515Z" fill="url(#paint10_linear_2001_195)"/>
</g>
<defs>
<linearGradient id="paint0_linear_2001_195" x1="0" y1="2.45586" x2="33.0148" y2="2.45586" gradientUnits="userSpaceOnUse">
<stop stop-color="#B51D44"/>
<stop offset="0.99" stop-color="#821B47"/>
</linearGradient>
<linearGradient id="paint1_linear_2001_195" x1="0" y1="25.5" x2="0.660297" y2="25.5" gradientUnits="userSpaceOnUse">
<stop stop-color="#B51D44"/>
<stop offset="0.99" stop-color="#821B47"/>
</linearGradient>
<linearGradient id="paint2_linear_2001_195" x1="0" y1="49.2026" x2="0.660297" y2="49.2026" gradientUnits="userSpaceOnUse">
<stop stop-color="#B51D44"/>
<stop offset="0.99" stop-color="#821B47"/>
</linearGradient>
<linearGradient id="paint3_linear_2001_195" x1="107.628" y1="1.79744" x2="140.643" y2="1.79744" gradientUnits="userSpaceOnUse">
<stop stop-color="#B51D44"/>
<stop offset="0.99" stop-color="#821B47"/>
</linearGradient>
<linearGradient id="paint4_linear_2001_195" x1="107.628" y1="24.8416" x2="140.643" y2="24.8416" gradientUnits="userSpaceOnUse">
<stop stop-color="#B51D44"/>
<stop offset="0.99" stop-color="#821B47"/>
</linearGradient>
<linearGradient id="paint5_linear_2001_195" x1="107.628" y1="48.5441" x2="140.643" y2="48.5441" gradientUnits="userSpaceOnUse">
<stop stop-color="#B51D44"/>
<stop offset="0.99" stop-color="#821B47"/>
</linearGradient>
<linearGradient id="paint6_linear_2001_195" x1="44.5435" y1="25.8292" x2="93.1809" y2="25.8292" gradientUnits="userSpaceOnUse">
<stop stop-color="#B51D44"/>
<stop offset="0.99" stop-color="#821B47"/>
</linearGradient>
<linearGradient id="paint7_linear_2001_195" x1="159.686" y1="25.8292" x2="200.314" y2="25.8292" gradientUnits="userSpaceOnUse">
<stop stop-color="#B51D44"/>
<stop offset="0.99" stop-color="#821B47"/>
</linearGradient>
<linearGradient id="paint8_linear_2001_195" x1="214.643" y1="25.8292" x2="254.604" y2="25.8292" gradientUnits="userSpaceOnUse">
<stop stop-color="#B51D44"/>
<stop offset="0.99" stop-color="#821B47"/>
</linearGradient>
<linearGradient id="paint9_linear_2001_195" x1="276.334" y1="25.77" x2="279.774" y2="25.77" gradientUnits="userSpaceOnUse">
<stop stop-color="#B51D44"/>
<stop offset="0.99" stop-color="#821B47"/>
</linearGradient>
<linearGradient id="paint10_linear_2001_195" x1="263.108" y1="25.77" x2="293" y2="25.77" gradientUnits="userSpaceOnUse">
<stop stop-color="#B51D44"/>
<stop offset="0.99" stop-color="#821B47"/>
</linearGradient>
<clipPath id="clip0_2001_195">
<rect width="293" height="51" fill="white"/>
</clipPath>
</defs>
</svg>
